<svg width="884.1875px" height="192.79999999999998px" xmlns="http://www.w3.org/2000/svg" viewBox="-192.09375 -21.39999999999999 884.1875 192.79999999999998" style="background: rgba(0, 0, 0, 0);" preserveAspectRatio="xMidYMid"><defs><filter id="editing-extrusion" x="-100%" y="-100%" width="300%" height="300%"><feFlood result="color1" flood-color="#444"></feFlood><feConvolveMatrix order="3,3" divisor="1" kernelMatrix="1 0 0 0 1 0 0 0 1" in="SourceAlpha" result="extrude"></feConvolveMatrix><feComposite in="color1" in2="extrude" result="comp-extrude" operator="in"></feComposite><feOffset dx="1.5" dy="1.5" in="comp-extrude" result="offset-extrude"></feOffset><feMerge><feMergeNode in="offset-extrude"></feMergeNode><feMergeNode in="SourceGraphic"></feMergeNode></feMerge></filter></defs><g filter="url(#editing-extrusion)"><g transform="translate(-69.11500263214111, 112.54999923706055)"><path d="M63.87-75.10L63.87-17.82L63.87-17.82Q63.87-14.55 63.04-11.94L63.04-11.94L63.04-11.94Q62.21-9.33 60.84-7.35L60.84-7.35L60.84-7.35Q59.47-5.37 57.67-3.98L57.67-3.98L57.67-3.98Q55.86-2.59 53.88-1.71L53.88-1.71L53.88-1.71Q51.90-0.83 49.88-0.42L49.88-0.42L49.88-0.42Q47.85 0 46.04 0L46.04 0L23.14 0L23.14 0Q19.87 0 17.29-0.83L17.29-0.83L17.29-0.83Q14.70-1.66 12.72-3.05L12.72-3.05L12.72-3.05Q10.74-4.44 9.35-6.25L9.35-6.25L9.35-6.25Q7.96-8.06 7.08-10.03L7.08-10.03L7.08-10.03Q6.20-12.01 5.79-14.04L5.79-14.04L5.79-14.04Q5.37-16.06 5.37-17.82L5.37-17.82L5.37-35.01L5.37-35.01Q5.37-39.89 7.15-43.29L7.15-43.29L7.15-43.29Q8.94-46.68 11.60-48.80L11.60-48.80L11.60-48.80Q14.26-50.93 17.38-51.86L17.38-51.86L17.38-51.86Q20.51-52.78 23.14-52.78L23.14-52.78L46.04-52.78L46.04-40.09L23.24-40.09L23.24-40.09Q20.70-40.09 19.38-38.79L19.38-38.79L19.38-38.79Q18.07-37.50 18.07-35.01L18.07-35.01L18.07-17.92L18.07-17.92Q18.07-15.33 19.36-14.01L19.36-14.01L19.36-14.01Q20.65-12.70 23.14-12.70L23.14-12.70L46.04-12.70L46.04-12.70Q48.63-12.70 49.90-14.01L49.90-14.01L49.90-14.01Q51.17-15.33 51.17-17.82L51.17-17.82L51.17-75.10L63.87-75.10ZM130.47-35.30L130.47-17.48L130.47-17.48Q130.47-14.84 129.54-11.79L129.54-11.79L129.54-11.79Q128.61-8.74 126.54-6.13L126.54-6.13L126.54-6.13Q124.46-3.52 121.12-1.76L121.12-1.76L121.12-1.76Q117.77 0 112.99 0L112.99 0L90.09 0L90.09 0Q87.45 0 84.40-0.93L84.40-0.93L84.40-0.93Q81.35-1.86 78.74-3.93L78.74-3.93L78.74-3.93Q76.12-6.01 74.37-9.35L74.37-9.35L74.37-9.35Q72.61-12.70 72.61-17.48L72.61-17.48L72.61-17.48Q72.61-20.12 73.54-23.19L73.54-23.19L73.54-23.19Q74.46-26.27 76.54-28.88L76.54-28.88L76.54-28.88Q78.61-31.49 81.96-33.25L81.96-33.25L81.96-33.25Q85.30-35.01 90.09-35.01L90.09-35.01L112.99-35.01L112.99-22.90L90.09-22.90L90.09-22.90Q87.50-22.90 86.08-21.31L86.08-21.31L86.08-21.31Q84.67-19.73 84.67-17.38L84.67-17.38L84.67-17.38Q84.67-14.89 86.30-13.50L86.30-13.50L86.30-13.50Q87.94-12.11 90.19-12.11L90.19-12.11L112.99-12.11L112.99-12.11Q115.58-12.11 116.99-13.67L116.99-13.67L116.99-13.67Q118.41-15.23 118.41-17.58L118.41-17.58L118.41-35.30L118.41-35.30Q118.41-37.79 116.87-39.26L116.87-39.26L116.87-39.26Q115.33-40.72 112.99-40.72L112.99-40.72L85.11-40.72L85.11-52.78L112.99-52.78L112.99-52.78Q115.63-52.78 118.68-51.86L118.68-51.86L118.68-51.86Q121.73-50.93 124.34-48.85L124.34-48.85L124.34-48.85Q126.95-46.78 128.71-43.43L128.71-43.43L128.71-43.43Q130.47-40.09 130.47-35.30L130.47-35.30ZM187.50-52.78L187.50-40.09L158.94-40.09L158.94-40.09Q156.35-40.09 155.03-38.79L155.03-38.79L155.03-38.79Q153.71-37.50 153.71-35.01L153.71-35.01L153.71 0L141.02 0L141.02-35.01L141.02-35.01Q141.02-38.28 141.85-40.87L141.85-40.87L141.85-40.87Q142.68-43.46 144.07-45.43L144.07-45.43L144.07-45.43Q145.46-47.41 147.27-48.80L147.27-48.80L147.27-48.80Q149.07-50.20 151.05-51.07L151.05-51.07L151.05-51.07Q153.03-51.95 155.05-52.37L155.05-52.37L155.05-52.37Q157.08-52.78 158.84-52.78L158.84-52.78L187.50-52.78ZM227.98-28.81L257.86 0L239.55 0L213.96-24.71L213.96-24.71Q211.82-26.66 211.96-29.59L211.96-29.59L211.96-29.59Q212.06-30.96 212.67-32.15L212.67-32.15L212.67-32.15Q213.28-33.35 214.36-34.18L214.36-34.18L237.55-52.88L257.86-52.88L227.98-28.81ZM208.74-75.10L208.74 0L196.04 0L196.04-75.10L208.74-75.10ZM344.73-52.78L344.73-40.09L322.56-40.09L322.56 0L309.72 0L309.72-40.09L293.21-40.09L293.21-52.78L309.72-52.78L309.72-70.02L322.56-70.02L322.56-52.78L344.73-52.78ZM411.77-35.01L411.77 0L399.07 0L399.07-35.01L399.07-35.01Q399.07-37.50 397.80-38.79L397.80-38.79L397.80-38.79Q396.53-40.09 393.99-40.09L393.99-40.09L371.09-40.09L371.09-52.78L393.99-52.78L393.99-52.78Q395.80-52.78 397.80-52.37L397.80-52.37L397.80-52.37Q399.80-51.95 401.78-51.07L401.78-51.07L401.78-51.07Q403.76-50.20 405.57-48.80L405.57-48.80L405.57-48.80Q407.37-47.41 408.74-45.43L408.74-45.43L408.74-45.43Q410.11-43.46 410.94-40.87L410.94-40.87L410.94-40.87Q411.77-38.28 411.77-35.01L411.77-35.01ZM365.97-75.10L365.97 0L353.27 0L353.27-75.10L365.97-75.10ZM480.18-35.30L480.18-35.30L480.18-35.30Q480.18-32.67 479.25-29.61L479.25-29.61L479.25-29.61Q478.32-26.56 476.25-23.95L476.25-23.95L476.25-23.95Q474.17-21.34 470.83-19.58L470.83-19.58L470.83-19.58Q467.48-17.82 462.70-17.82L462.70-17.82L439.79-17.82L439.79-29.88L462.70-29.88L462.70-29.88Q465.28-29.88 466.70-31.47L466.70-31.47L466.70-31.47Q468.12-33.06 468.12-35.40L468.12-35.40L468.12-35.40Q468.12-37.89 466.53-39.31L466.53-39.31L466.53-39.31Q464.94-40.72 462.70-40.72L462.70-40.72L439.79-40.72L439.79-40.72Q437.21-40.72 435.79-39.14L435.79-39.14L435.79-39.14Q434.38-37.55 434.38-35.21L434.38-35.21L434.38-17.48L434.38-17.48Q434.38-14.94 435.96-13.53L435.96-13.53L435.96-13.53Q437.55-12.11 439.89-12.11L439.89-12.11L462.70-12.11L462.70 0L439.79 0L439.79 0Q437.16 0 434.11-0.93L434.11-0.93L434.11-0.93Q431.05-1.86 428.44-3.93L428.44-3.93L428.44-3.93Q425.83-6.01 424.07-9.35L424.07-9.35L424.07-9.35Q422.31-12.70 422.31-17.48L422.31-17.48L422.31-35.30L422.31-35.30Q422.31-37.94 423.24-40.99L423.24-40.99L423.24-40.99Q424.17-44.04 426.25-46.66L426.25-46.66L426.25-46.66Q428.32-49.27 431.67-51.03L431.67-51.03L431.67-51.03Q435.01-52.78 439.79-52.78L439.79-52.78L462.70-52.78L462.70-52.78Q465.33-52.78 468.38-51.86L468.38-51.86L468.38-51.86Q471.44-50.93 474.05-48.85L474.05-48.85L474.05-48.85Q476.66-46.78 478.42-43.43L478.42-43.43L478.42-43.43Q480.18-40.09 480.18-35.30ZM535.84-35.01L535.84 0L523.14 0L523.14-35.01L523.14-35.01Q523.14-37.50 521.83-38.79L521.83-38.79L521.83-38.79Q520.51-40.09 517.92-40.09L517.92-40.09L501.42-40.09L501.42 0L488.72 0L488.72-46.48L488.72-46.48Q488.72-47.80 489.21-48.95L489.21-48.95L489.21-48.95Q489.70-50.10 490.58-50.95L490.58-50.95L490.58-50.95Q491.46-51.81 492.63-52.29L492.63-52.29L492.63-52.29Q493.80-52.78 495.12-52.78L495.12-52.78L518.02-52.78L518.02-52.78Q520.65-52.78 523.68-51.86L523.68-51.86L523.68-51.86Q526.71-50.93 529.44-48.88L529.44-48.88L529.44-52.78L546.63-52.78L546.63-52.78Q548.44-52.78 550.44-52.37L550.44-52.37L550.44-52.37Q552.44-51.95 554.42-51.07L554.42-51.07L554.42-51.07Q556.40-50.20 558.20-48.80L558.20-48.80L558.20-48.80Q560.01-47.41 561.38-45.43L561.38-45.43L561.38-45.43Q562.74-43.46 563.57-40.87L563.57-40.87L563.57-40.87Q564.40-38.28 564.40-35.01L564.40-35.01L564.40 0L551.71 0L551.71-35.01L551.71-35.01Q551.71-37.50 550.46-38.79L550.46-38.79L550.46-38.79Q549.22-40.09 546.63-40.09L546.63-40.09L535.21-40.09L535.21-40.09Q535.84-37.74 535.84-35.01L535.84-35.01ZM632.86-35.30L632.86-35.30L632.86-35.30Q632.86-32.67 631.93-29.61L631.93-29.61L631.93-29.61Q631.01-26.56 628.93-23.95L628.93-23.95L628.93-23.95Q626.86-21.34 623.51-19.58L623.51-19.58L623.51-19.58Q620.17-17.82 615.38-17.82L615.38-17.82L592.48-17.82L592.48-29.88L615.38-29.88L615.38-29.88Q617.97-29.88 619.38-31.47L619.38-31.47L619.38-31.47Q620.80-33.06 620.80-35.40L620.80-35.40L620.80-35.40Q620.80-37.89 619.21-39.31L619.21-39.31L619.21-39.31Q617.63-40.72 615.38-40.72L615.38-40.72L592.48-40.72L592.48-40.72Q589.89-40.72 588.48-39.14L588.48-39.14L588.48-39.14Q587.06-37.55 587.06-35.21L587.06-35.21L587.06-17.48L587.06-17.48Q587.06-14.94 588.65-13.53L588.65-13.53L588.65-13.53Q590.23-12.11 592.58-12.11L592.58-12.11L615.38-12.11L615.38 0L592.48 0L592.48 0Q589.84 0 586.79-0.93L586.79-0.93L586.79-0.93Q583.74-1.86 581.13-3.93L581.13-3.93L581.13-3.93Q578.52-6.01 576.76-9.35L576.76-9.35L576.76-9.35Q575-12.70 575-17.48L575-17.48L575-35.30L575-35.30Q575-37.94 575.93-40.99L575.93-40.99L575.93-40.99Q576.86-44.04 578.93-46.66L578.93-46.66L578.93-46.66Q581.01-49.27 584.35-51.03L584.35-51.03L584.35-51.03Q587.70-52.78 592.48-52.78L592.48-52.78L615.38-52.78L615.38-52.78Q618.02-52.78 621.07-51.86L621.07-51.86L621.07-51.86Q624.12-50.93 626.73-48.85L626.73-48.85L626.73-48.85Q629.35-46.78 631.10-43.43L631.10-43.43L631.10-43.43Q632.86-40.09 632.86-35.30Z" fill="#ccc"></path></g></g><style>text {
  font-size: 64px;
  font-family: Arial Black;
  dominant-baseline: central;
  text-anchor: middle;
}</style></svg>