<svg width="83.682" height="68.399" viewBox="0 0 83.682 68.399" xmlns="http://www.w3.org/2000/svg"><g id="svgGroup" stroke-linecap="round" fill-rule="evenodd" font-size="9pt" stroke="#ffffff" stroke-width="0.25mm" fill="#ffffff" style="stroke:#ffffff;stroke-width:0.25mm;fill:#ffffff"><path d="M 22.5 0.02 L 38.125 0.02 L 42.959 9.785 L 21.475 9.785 A 4.687 4.687 0 0 0 17.658 11.888 Q 15.289 15.01 14.294 22.765 A 68.313 68.313 0 0 0 14.102 24.434 L 12.051 43.965 Q 10.902 54.732 13.764 57.585 A 3.511 3.511 0 0 0 16.348 58.614 L 22.207 58.614 A 4.686 4.686 0 0 0 25.997 56.554 Q 28.402 53.445 29.429 45.644 A 68.355 68.355 0 0 0 29.629 43.965 L 30.117 39.082 L 21.328 39.082 L 16.494 29.317 L 42.861 29.317 L 41.348 43.965 A 51.773 51.773 0 0 1 39.678 52.876 Q 38.319 57.569 36.088 60.842 A 16.921 16.921 0 0 1 21.182 68.379 L 15.322 68.379 A 17.706 17.706 0 0 1 8.485 67.165 Q -0.839 63.284 0.083 46.998 A 62.11 62.11 0 0 1 0.332 43.965 L 2.383 24.434 Q 4.922 0.02 22.5 0.02 Z M 70.889 58.614 L 54.58 58.614 L 51.455 68.379 L 39.736 68.379 L 61.563 0.02 L 76.211 0.02 L 83.682 68.379 L 71.963 68.379 L 70.889 58.614 Z M 69.815 48.848 L 66.738 20.528 L 57.705 48.848 L 69.815 48.848 Z" vector-effect="non-scaling-stroke"/></g></svg>